PathFileType  4	(X/Y/Z) C:\Users\antoi\Documents\MyRepositories\mobilecap\ResultsAnalysis
DataRate	CameraRate	NumFrames	NumMarkers	Units	OrigDataRate	OrigDataStartFrame	OrigNumFrames
100.0	100.0	6	51	mm	100.0	1037	1184
Frame#	Time	r_knee			r_shank_antsup			r_ankle			r_calc			r_5meta			r_toe			L_knee			L_shank_antsup			L_ankle			L_calc			L_5meta			L_toe			r_sh2			r_sh3			r_sh4			L_sh2			L_sh3			r_thigh1			r_thigh2			r_thigh3			r_thigh4			r_thigh5			L_thigh1			L_thigh2			L_thigh3			L_thigh4			r.ASIS			r.PSIS			L.ASIS			L.PSIS			C7			R_Shoulder			L_Shoulder			R_Sternum			L_Sternum			R_humerus			R_elbow_med			R_elbow_lat			R_forearm			R_wrist_radius			R_wrist_ulna			L_humerus			L_elbow_med			L_elbow_lat			L_forearm			L_wrist_radius			L_wrist_ulna			R_HJC			L_HJC			R_HJC_reg			L_HJC_reg			
		X1	Y1	Z1	X2	Y2	Z2	X3	Y3	Z3	X4	Y4	Z4	X5	Y5	Z5	X6	Y6	Z6	X7	Y7	Z7	X8	Y8	Z8	X9	Y9	Z9	X10	Y10	Z10	X11	Y11	Z11	X12	Y12	Z12	X13	Y13	Z13	X14	Y14	Z14	X15	Y15	Z15	X16	Y16	Z16	X17	Y17	Z17	X18	Y18	Z18	X19	Y19	Z19	X20	Y20	Z20	X21	Y21	Z21	X22	Y22	Z22	X23	Y23	Z23	X24	Y24	Z24	X25	Y25	Z25	X26	Y26	Z26	X27	Y27	Z27	X28	Y28	Z28	X29	Y29	Z29	X30	Y30	Z30	X31	Y31	Z31	X32	Y32	Z32	X33	Y33	Z33	X34	Y34	Z34	X35	Y35	Z35	X36	Y36	Z36	X37	Y37	Z37	X38	Y38	Z38	X39	Y39	Z39	X40	Y40	Z40	X41	Y41	Z41	X42	Y42	Z42	X43	Y43	Z43	X44	Y44	Z44	X45	Y45	Z45	X46	Y46	Z46	X47	Y47	Z47	X48	Y48	Z48	X49	Y49	Z49	X50	Y50	Z50	X51	Y51	Z51	

1037	10.36000000	-118.10366	408.49593	-369.98824	-103.97034	292.61039	-374.45030	-297.07746	91.33624	-415.02144	-348.14682	53.64084	-463.79188	-206.57886	40.47050	-350.64585	-162.23469	56.58220	-386.70088	-113.01552	418.40105	-894.27654	-81.90689	302.84545	-865.71226	-286.10085	93.59724	-855.46391	-332.75829	53.32502	-805.13226	-185.33600	36.91365	-906.16696	-136.15094	53.26785	-860.42621	-167.87574	201.97168	-393.38658	-162.15935	323.10992	-336.94706	-234.26312	241.41154	-364.61073	-133.91955	351.32559	-918.11268	-201.67711	250.64864	-921.98296	-300.74853	644.09195	-432.93317	-214.51685	592.09376	-405.54637	-228.09900	539.46712	-361.58315	-365.85602	558.55176	-398.91662	-269.54869	501.65685	-368.32262	-304.05869	623.94420	-836.50662	-189.86723	568.69019	-868.05421	-373.15326	536.98660	-859.77327	-248.04895	477.03387	-889.55944	-267.51054	636.54135	-506.69390	-401.27365	758.37639	-581.39613	-262.32918	627.36739	-749.20833	-401.54775	756.95953	-691.66510	-144.31961	1097.91052	-624.43524	-84.99542	1050.50634	-485.40815	-79.33677	1062.71576	-770.10558	-45.78558	1001.88263	-606.79034	-44.70021	1000.68627	-649.97580	-49.31922	959.90187	-410.34759	-86.74954	754.37340	-344.10686	-26.52390	805.72573	-308.82092	22.65821	844.40983	-413.77432	36.19456	878.47686	-505.57855	69.33829	860.86763	-503.26545	-32.36831	956.77905	-851.37026	-52.45835	757.47236	-903.28937	0.67728	799.31059	-947.33526	46.65948	832.81600	-852.77294	47.72667	869.62120	-733.45878	76.39017	855.14294	-734.63949	-378.77721	616.09060	-532.11891	-373.41404	604.62285	-721.07341	-361.47157	608.31223	-539.99374	-361.87046	606.25393	-700.19192	
1038	10.37000000	-116.58375	407.10725	-369.23064	-102.83851	291.56828	-374.38467	-296.91665	91.39264	-414.99131	-348.02149	53.75896	-463.85133	-206.59456	40.46009	-350.55924	-162.18055	56.50429	-386.67795	-111.81028	417.33235	-895.46880	-80.71558	301.76867	-866.34600	-285.86041	93.58764	-855.35665	-332.74160	53.42439	-805.03247	-185.34298	36.91210	-906.22308	-136.04656	53.17503	-860.44424	-167.16521	201.31884	-393.32799	-160.76626	322.24085	-336.61659	-233.35014	240.94801	-364.43638	-132.86566	349.88146	-918.25722	-200.95337	250.07633	-922.49654	-302.32576	638.76807	-433.26980	-214.92580	587.97731	-406.15385	-228.48001	535.72021	-361.59858	-366.47842	552.85487	-398.48190	-269.39854	497.33600	-368.25170	-305.78399	619.36265	-836.59814	-191.02291	565.75740	-868.04692	-373.94133	531.74869	-860.45737	-247.96581	473.56787	-890.24461	-268.25024	629.07554	-506.66801	-402.03997	750.48001	-581.46584	-262.53798	620.67632	-748.91742	-402.33604	748.98820	-691.58521	-142.48667	1087.76798	-624.40867	-83.28966	1039.94752	-485.96788	-77.37635	1052.38737	-770.20436	-44.32206	991.02901	-606.87708	-43.52515	989.78100	-650.29450	-47.00689	950.01029	-410.74945	-82.68417	744.22961	-344.50574	-22.76442	796.17519	-309.36142	25.79626	835.21794	-414.52271	38.81762	869.39441	-506.19670	72.16563	852.21404	-503.83208	-30.18513	946.53223	-851.59734	-49.13424	746.93837	-902.53895	3.80263	788.97985	-946.74865	49.32887	823.13176	-852.09458	50.26149	860.37645	-733.20071	78.98642	846.23474	-734.16561	-379.24795	608.17753	-532.28793	-373.43187	597.10404	-721.25245	-361.77133	601.14594	-539.89011	-362.20279	598.97916	-699.90225	
1039	10.38000000	-115.24719	405.85878	-368.51648	-101.70233	290.60414	-374.13759	-296.78666	91.48582	-414.85368	-347.89636	53.87519	-463.95032	-206.61216	40.46979	-350.47307	-162.10361	56.39890	-386.68493	-110.70453	416.25122	-896.56782	-79.65796	300.73333	-867.06317	-285.64644	93.55628	-855.25399	-332.81498	53.75986	-805.28208	-185.35739	36.89427	-906.31851	-135.94649	53.04317	-860.57765	-166.52300	200.58414	-393.23139	-159.49826	321.48441	-336.24687	-232.58620	240.68622	-364.31556	-131.63556	348.94165	-919.06059	-200.21293	249.42142	-922.88186	-304.02852	633.81314	-433.33491	-215.70915	584.21262	-406.36164	-229.01651	532.16805	-361.48272	-367.14210	547.35659	-398.09480	-269.38258	493.16161	-368.07077	-307.38050	614.84117	-836.50415	-192.03367	562.81076	-868.04493	-374.65336	526.54147	-860.78481	-247.93001	470.28187	-891.18108	-268.89050	621.74952	-506.68979	-403.45610	742.92648	-581.80063	-262.64626	614.09284	-748.37658	-403.09486	741.10466	-691.53935	-140.68202	1077.77120	-624.90575	-81.54792	1029.80054	-486.45103	-75.49458	1042.14866	-770.42481	-43.04535	980.44536	-607.02918	-42.23182	979.20815	-650.39339	-44.83735	940.33939	-411.13092	-78.64807	734.23171	-344.84317	-19.17471	786.79067	-309.85640	28.80753	826.25311	-415.22416	41.27616	860.49855	-506.63069	74.80689	843.74833	-504.33817	-28.08994	936.38961	-851.60104	-45.83497	736.64884	-901.81540	6.90247	778.73258	-945.87666	51.89117	813.70317	-851.46237	52.63434	851.25546	-732.75255	81.57064	837.46132	-733.60691	-379.84161	600.44302	-532.48489	-373.35041	589.66147	-721.44358	-362.44403	594.15096	-540.32669	-361.91426	591.49992	-699.94309	
1040	10.39000000	-114.11466	404.78464	-367.80363	-100.59983	289.63593	-373.78592	-296.63337	91.63306	-414.70778	-347.79329	53.95688	-464.06703	-206.61447	40.47884	-350.40881	-162.02511	56.25976	-386.73437	-109.74273	415.28209	-897.76482	-78.70310	299.84463	-868.02055	-285.46043	93.49674	-855.17742	-332.97076	54.20203	-805.72081	-185.36175	36.86463	-906.39360	-135.86755	52.88886	-860.74494	-165.90773	200.00813	-392.90209	-158.35603	320.82502	-335.85504	-231.70661	240.38195	-364.07686	-130.28962	348.60141	-920.57220	-199.52857	248.82298	-923.28796	-306.02412	629.24481	-433.50175	-217.22096	580.68590	-406.29282	-229.74099	528.67957	-361.46131	-367.99301	542.08094	-397.81263	-269.56936	489.04462	-367.88348	-308.81444	610.35401	-836.43785	-192.96603	559.78667	-868.03630	-375.27567	521.35583	-861.07529	-248.01399	466.97309	-892.06972	-269.44988	614.86339	-506.75070	-405.29869	735.62354	-582.45546	-262.58456	607.61992	-747.59303	-403.76871	733.39749	-691.44837	-138.95264	1068.00745	-625.63559	-79.68158	1020.03873	-486.62941	-73.61482	1031.93582	-770.56805	-41.94030	970.17326	-607.27051	-40.89741	968.86561	-650.44846	-42.76922	930.87483	-411.56607	-74.74540	724.52658	-345.15471	-15.75370	777.64047	-310.28477	31.58373	817.58992	-415.71184	43.57603	851.83692	-507.03746	77.28182	835.42163	-504.94684	-26.07621	926.40134	-851.35038	-42.56180	726.61910	-901.23452	10.01903	768.71994	-945.01085	54.62787	804.48096	-850.89434	54.91567	842.23690	-732.11520	84.12172	828.89731	-733.14669	-380.44625	593.00953	-532.65016	-373.08491	582.31456	-721.58193	-363.28321	587.22939	-541.18018	-361.04503	583.97949	-700.21598	
1041	10.40000000	-113.17835	403.77254	-367.01987	-99.61202	288.66862	-373.43796	-296.40408	91.75192	-414.65292	-347.72588	54.01069	-464.13105	-206.59091	40.42349	-350.40821	-161.96668	56.14876	-386.75745	-108.95642	414.37560	-899.04612	-77.81967	299.05068	-869.02682	-285.31275	93.43573	-855.15775	-333.11731	54.51753	-806.06436	-185.36186	36.83493	-906.41445	-135.81331	52.77230	-860.82168	-165.25668	199.47160	-392.64679	-157.34406	320.19372	-335.48044	-230.89554	239.93076	-363.77172	-129.17992	348.08820	-921.93464	-198.91267	248.24520	-923.73562	-308.04088	624.70564	-433.88410	-219.58287	576.88093	-406.70928	-230.59386	524.91193	-361.85993	-369.02630	537.00339	-397.64385	-269.95052	484.96220	-367.83102	-310.20404	605.89825	-836.56766	-193.91023	556.67620	-868.03376	-375.96458	516.28746	-861.70229	-248.20345	463.49821	-892.73461	-269.95397	608.47582	-506.84121	-406.64094	728.28515	-583.02829	-262.43263	601.26043	-747.00148	-404.36092	725.95688	-691.34232	-137.29040	1058.52128	-626.12364	-77.97190	1010.28096	-486.88679	-71.74242	1021.88175	-770.62885	-40.88317	959.88034	-607.30002	-39.63979	958.84124	-650.67302	-40.79160	921.62591	-412.04585	-71.08676	715.10997	-345.56560	-12.50735	768.79231	-310.69271	34.12966	809.10306	-416.17927	45.75745	843.35796	-507.65520	79.65979	827.32881	-505.58113	-24.03018	916.67524	-851.22538	-39.26679	716.69644	-900.59287	13.13860	758.99043	-944.38165	57.41416	795.52579	-850.39028	57.20371	833.44215	-731.66251	86.57407	820.52993	-732.79950	-380.78329	585.84249	-532.76468	-372.72219	575.14039	-721.66814	-363.69307	580.26220	-541.77643	-360.35614	576.85330	-700.36221	
1042	10.41000000	-112.42392	402.71289	-366.23997	-98.77282	287.79591	-373.01474	-296.13257	91.80898	-414.71070	-347.67428	54.09087	-464.14221	-206.56461	40.33469	-350.42710	-161.93255	56.08479	-386.72057	-108.28631	413.40119	-900.17354	-77.05654	298.22187	-869.77670	-285.21190	93.39098	-855.16753	-333.07792	54.48158	-806.00566	-185.37849	36.81863	-906.42488	-135.78399	52.71164	-860.82226	-164.61861	198.79225	-392.64166	-156.44344	319.50210	-335.16648	-230.42781	239.42508	-363.66674	-128.37619	347.19209	-922.84511	-198.32709	247.51709	-924.05677	-309.93928	620.19058	-434.19736	-222.08165	573.06061	-407.47863	-231.53633	520.95365	-362.44977	-370.05779	532.03763	-397.61346	-270.46542	481.04622	-367.64792	-311.70080	601.55060	-836.83358	-194.90972	553.55280	-868.02530	-376.81904	511.34850	-862.50168	-248.42597	459.99642	-893.42919	-270.34875	602.34424	-507.14139	-407.29163	720.97075	-583.25475	-262.36892	595.16858	-747.49850	-404.91264	718.84956	-691.30364	-135.63677	1049.34552	-626.41988	-76.50529	1000.65775	-487.45458	-69.97815	1012.16407	-770.77362	-39.66582	949.90324	-607.32527	-38.49356	949.09279	-650.95207	-38.89322	912.68173	-412.56901	-67.72169	706.00238	-346.03706	-9.47220	760.21255	-311.17239	36.51948	800.79050	-416.74858	47.81120	835.08605	-508.31470	81.94950	819.53754	-506.13410	-21.92801	907.20673	-851.26992	-35.94454	706.84947	-899.72351	16.18308	749.44100	-943.79026	59.84812	786.91921	-849.85676	59.43910	824.84546	-731.33825	88.97831	812.40907	-732.48593	-380.73810	578.79943	-533.12849	-372.49974	568.35654	-722.03792	-363.73330	573.24950	-542.22689	-360.23980	570.13362	-700.95372	
